<svg width="24" height="22" viewBox="0 0 24 22" fill="none" xmlns="http://www.w3.org/2000/svg">
<path d="M12.0007 5.16667V0.5H0.333984V21.5H23.6673V5.16667H12.0007ZM5.00065 19.1667H2.66732V16.8333H5.00065V19.1667ZM5.00065 14.5H2.66732V12.1667H5.00065V14.5ZM5.00065 9.83333H2.66732V7.5H5.00065V9.83333ZM5.00065 5.16667H2.66732V2.83333H5.00065V5.16667ZM9.66732 19.1667H7.33398V16.8333H9.66732V19.1667ZM9.66732 14.5H7.33398V12.1667H9.66732V14.5ZM9.66732 9.83333H7.33398V7.5H9.66732V9.83333ZM9.66732 5.16667H7.33398V2.83333H9.66732V5.16667ZM21.334 19.1667H12.0007V16.8333H14.334V14.5H12.0007V12.1667H14.334V9.83333H12.0007V7.5H21.334V19.1667ZM19.0007 9.83333H16.6673V12.1667H19.0007V9.83333ZM19.0007 14.5H16.6673V16.8333H19.0007V14.5Z" fill="white"/>
</svg>
