<svg width="24" height="24" viewBox="0 0 24 24" fill="none" xmlns="http://www.w3.org/2000/svg">
<path d="M21.334 6.16732H15.5006V2.66732C15.5006 1.38398 14.4506 0.333984 13.1673 0.333984H10.834C9.55065 0.333984 8.50065 1.38398 8.50065 2.66732V6.16732H2.66732C1.38398 6.16732 0.333984 7.21732 0.333984 8.50065V21.334C0.333984 22.6173 1.38398 23.6673 2.66732 23.6673H21.334C22.6173 23.6673 23.6673 22.6173 23.6673 21.334V8.50065C23.6673 7.21732 22.6173 6.16732 21.334 6.16732ZM10.834 6.16732V2.66732H13.1673V6.16732V8.50065H10.834V6.16732ZM21.334 21.334H2.66732V8.50065H8.50065C8.50065 9.78399 9.55065 10.834 10.834 10.834H13.1673C14.4506 10.834 15.5006 9.78399 15.5006 8.50065H21.334V21.334Z" fill="white"/>
</svg>
