<svg width="219" height="40" viewBox="0 0 219 40" fill="none" xmlns="http://www.w3.org/2000/svg">
<g clip-path="url(#clip0)">
<path d="M0.0699896 19.6868C-0.0172932 19.7304 -0.0260214 19.8177 0.0612613 19.8701L7.61995 24.8627L9.78456 14.6768L0.0699896 19.6868Z" fill="#E72410"/>
<path d="M44.8289 14.6689H42.9174C42.8214 14.6689 42.6643 14.7039 42.577 14.7562L32.9934 19.6877C32.9061 19.7313 32.9061 19.8186 32.9846 19.871L40.4211 24.7676C40.5084 24.8199 40.6568 24.8636 40.7528 24.8636H42.6643C42.7603 24.8636 42.769 24.8199 42.6905 24.7676L35.1056 19.775L44.8551 14.7562C44.9424 14.7039 44.9336 14.6689 44.8289 14.6689Z" fill="#F08300"/>
<path d="M40.7349 14.6689H27.4156L25.251 24.8636H38.5703C38.6663 24.8636 38.6838 24.8199 38.5965 24.7676L31.0204 19.775L40.7524 14.7562C40.8397 14.7039 40.831 14.6689 40.7349 14.6689Z" fill="#E72410"/>
<path d="M48.9226 14.6689H47.0112C46.9151 14.6689 46.758 14.7039 46.6708 14.7562L37.0871 19.6964C36.9998 19.7401 36.9998 19.8274 37.0784 19.8797L44.5149 24.7763C44.5934 24.8287 44.7505 24.8723 44.8465 24.8723H46.758C46.854 24.8723 46.8715 24.8287 46.7842 24.7763L39.1993 19.7837L48.9401 14.765C49.0274 14.7039 49.0187 14.6689 48.9226 14.6689Z" fill="#FABE00"/>
<path d="M40.1411 8H8.78909C7.04344 8 5.81275 9.09976 5.52472 10.4614C5.36761 11.212 5.64691 11.8754 6.22298 12.3292L17.4912 19.7657H17.4999L40.1673 8.07855C40.2545 8.03491 40.2458 8 40.1411 8Z" fill="#E72410"/>
<path d="M35.1754 31.4353L17.5093 19.7656H17.5006L3.06404 27.2021C2.29595 27.656 1.72861 28.3193 1.5715 29.07C1.27474 30.4316 2.0341 31.5313 3.78848 31.5313H35.1404C35.2452 31.5313 35.2539 31.4877 35.1754 31.4353Z" fill="#E72410"/>
<path d="M67.054 29C64.062 29 62.5 28.516 62.5 27.46C62.5 26.448 64.062 25.942 67.054 25.942C70.068 25.942 71.63 26.448 71.63 27.46C71.63 28.516 70.068 29 67.054 29ZM67.054 24.27C62.742 24.27 60.212 25.37 60.212 27.46C60.212 29.572 62.742 30.694 67.054 30.694C71.388 30.694 73.896 29.572 73.896 27.46C73.896 25.37 71.388 24.27 67.054 24.27ZM68.22 21.212V19.584H74.05V17.846H62.654V16.306H73.434V14.612H62.654V13.116H73.918V11.378H60.388V19.584H65.932V21.212H58.078V23.038H76.052V21.212H68.22ZM90.1083 12.72H85.3783V10.652H83.1123V12.72H78.3823V14.546H90.1083V12.72ZM81.5943 18.77C81.5943 17.648 82.6503 16.966 84.2343 16.966C85.8183 16.966 86.8963 17.648 86.8963 18.77C86.8963 19.914 85.8183 20.596 84.2343 20.596C82.6503 20.596 81.5943 19.914 81.5943 18.77ZM89.0523 18.77C89.0523 16.68 87.1163 15.272 84.2343 15.272C81.3743 15.272 79.4163 16.68 79.4163 18.77C79.4163 20.882 81.3743 22.29 84.2343 22.29C87.1163 22.29 89.0523 20.882 89.0523 18.77ZM91.6263 28.648H83.4203V26.822H91.6263V28.648ZM91.6263 25.062H83.4203V23.236H81.1763V30.452H93.8703V23.236H91.6263V25.062ZM96.6863 15.778H93.8703V10.828H91.6043V22.422H93.8703V17.648H96.6863V15.778ZM112.327 14.634C112.327 17.01 112.327 19.826 111.557 23.72L113.845 23.962C114.615 19.848 114.615 17.098 114.615 14.634V12.676H100.469V14.524H112.327V14.634ZM107.575 26.228V19.232H105.287V26.228H98.5986V28.098H116.551V26.228H107.575ZM119.673 12.258V14.084H125.129C124.755 17.142 122.709 19.496 118.793 21.036L119.871 22.664C124.975 20.618 127.461 17.142 127.461 12.258H119.673ZM122.137 25.216H133.379V30.716H135.645V23.39H122.137V25.216ZM133.489 10.828V15.646H131.289V11.202H129.155V22.4H131.289V17.494H133.489V22.488H135.645V10.828H133.489ZM149.569 19.342C150.053 16.768 150.053 14.81 150.053 13.468V12.324H140.065V14.172H147.831C147.809 15.404 147.743 16.966 147.347 19.1L149.569 19.342ZM151.219 20.332C149.261 20.64 147.127 20.772 145.059 20.86V16.856H142.815V20.926C141.407 20.97 140.043 20.97 138.855 20.97L139.097 22.818C142.551 22.818 147.237 22.708 151.373 21.982L151.219 20.332ZM144.135 24.424H141.847V30.32H155.355V28.472H144.135V24.424ZM154.717 17.12V10.828H152.429V25.744H154.717V18.99H157.357V17.12H154.717ZM162.723 19.958H169.653V12.588H160.391V14.436H167.365V18.132H160.435V26.008H162.129C165.627 26.008 168.597 25.898 172.007 25.304L171.765 23.456C168.619 23.962 165.869 24.116 162.723 24.138V19.958ZM173.415 10.784V30.738H175.703V10.784H173.415ZM186.218 14.436H190.794V20.552H186.218V14.436ZM189.628 26.47V22.378H195.92V20.552H193.038V14.436H195.964V12.61H181.026V14.436H183.952V20.552H181.092V22.378H187.362V26.47H179.53V28.34H197.57V26.47H189.628ZM213.958 21.454H216.246V10.806H213.958V15.228H210.526V17.032H213.958V21.454ZM210.658 18.594C208.282 18.99 206.258 19.056 203.002 19.056V17.208H209.228V15.492H203.002V13.776H209.8V11.994H200.736V20.838H202.232C205.994 20.838 208.216 20.816 210.834 20.398L210.658 18.594ZM205.576 28.758V27.152H216.246V22.268H203.31V24.028H214.002V25.524H203.332V30.518H216.906V28.758H205.576Z" fill="#383838"/>
</g>
<defs>
<clipPath id="clip0">
<rect width="219" height="40" fill="white"/>
</clipPath>
</defs>
</svg>
