<svg width="24" height="24" viewBox="0 0 24 24" fill="none" xmlns="http://www.w3.org/2000/svg">
<path d="M11.9997 0.333984C5.55967 0.333984 0.333008 5.56065 0.333008 12.0006C0.333008 18.4406 5.55967 23.6673 11.9997 23.6673C18.4397 23.6673 23.6663 18.4406 23.6663 12.0006C23.6663 5.56065 18.4397 0.333984 11.9997 0.333984ZM6.24801 19.3273C6.74967 18.2773 9.80634 17.2506 11.9997 17.2506C14.193 17.2506 17.2613 18.2773 17.7513 19.3273C16.1647 20.5873 14.1697 21.334 11.9997 21.334C9.82967 21.334 7.83467 20.5873 6.24801 19.3273ZM19.4197 17.6356C17.7513 15.6056 13.703 14.9173 11.9997 14.9173C10.2963 14.9173 6.24801 15.6056 4.57967 17.6356C3.38967 16.0723 2.66634 14.124 2.66634 12.0006C2.66634 6.85565 6.85467 2.66732 11.9997 2.66732C17.1447 2.66732 21.333 6.85565 21.333 12.0006C21.333 14.124 20.6097 16.0723 19.4197 17.6356ZM11.9997 5.00065C9.73634 5.00065 7.91634 6.82065 7.91634 9.08398C7.91634 11.3473 9.73634 13.1673 11.9997 13.1673C14.263 13.1673 16.083 11.3473 16.083 9.08398C16.083 6.82065 14.263 5.00065 11.9997 5.00065ZM11.9997 10.834C11.0313 10.834 10.2497 10.0523 10.2497 9.08398C10.2497 8.11565 11.0313 7.33398 11.9997 7.33398C12.968 7.33398 13.7497 8.11565 13.7497 9.08398C13.7497 10.0523 12.968 10.834 11.9997 10.834Z" fill="white"/>
</svg>
