<svg width="22" height="24" viewBox="0 0 22 24" fill="none" xmlns="http://www.w3.org/2000/svg">
<path d="M19.1667 2.49935H18V0.166016H15.6667V2.49935H6.33333V0.166016H4V2.49935H2.83333C1.55 2.49935 0.5 3.54935 0.5 4.83268V21.166C0.5 22.4493 1.55 23.4993 2.83333 23.4993H19.1667C20.45 23.4993 21.5 22.4493 21.5 21.166V4.83268C21.5 3.54935 20.45 2.49935 19.1667 2.49935ZM19.1667 21.166H2.83333V9.49935H19.1667V21.166ZM2.83333 7.16601V4.83268H19.1667V7.16601H2.83333ZM5.16667 11.8327H16.8333V14.166H5.16667V11.8327ZM5.16667 16.4993H13.3333V18.8327H5.16667V16.4993Z" fill="white"/>
</svg>
