<svg width="24" height="24" viewBox="0 0 24 24" fill="none" xmlns="http://www.w3.org/2000/svg">
<path d="M20.6677 13.144C20.7143 12.7707 20.7493 12.3973 20.7493 12.0007C20.7493 11.604 20.7143 11.2307 20.6677 10.8573L23.1293 8.93232C23.351 8.75732 23.4093 8.44232 23.2693 8.18565L20.936 4.14898C20.831 3.96232 20.6327 3.85732 20.4227 3.85732C20.3527 3.85732 20.2827 3.86898 20.2243 3.89232L17.3193 5.05898C16.7127 4.59232 16.0593 4.20732 15.3477 3.91565L14.9043 0.823985C14.8693 0.543984 14.6243 0.333984 14.3327 0.333984H9.66599C9.37432 0.333984 9.12932 0.543984 9.09432 0.823985L8.65099 3.91565C7.93932 4.20732 7.28599 4.60398 6.67932 5.05898L3.77432 3.89232C3.70432 3.86898 3.63432 3.85732 3.56432 3.85732C3.36599 3.85732 3.16766 3.96232 3.06266 4.14898L0.729324 8.18565C0.577658 8.44232 0.647658 8.75732 0.869324 8.93232L3.33099 10.8573C3.28432 11.2307 3.24932 11.6157 3.24932 12.0007C3.24932 12.3857 3.28432 12.7707 3.33099 13.144L0.869324 15.069C0.647658 15.244 0.589324 15.559 0.729324 15.8157L3.06266 19.8523C3.16766 20.039 3.36599 20.144 3.57599 20.144C3.64599 20.144 3.71599 20.1323 3.77432 20.109L6.67932 18.9423C7.28599 19.409 7.93932 19.794 8.65099 20.0857L9.09432 23.1773C9.12932 23.4573 9.37432 23.6673 9.66599 23.6673H14.3327C14.6243 23.6673 14.8693 23.4573 14.9043 23.1773L15.3477 20.0857C16.0593 19.794 16.7127 19.3973 17.3193 18.9423L20.2243 20.109C20.2943 20.1323 20.3643 20.144 20.4343 20.144C20.6327 20.144 20.831 20.039 20.936 19.8523L23.2693 15.8157C23.4093 15.559 23.351 15.244 23.1293 15.069L20.6677 13.144ZM18.3577 11.149C18.4043 11.5107 18.416 11.7557 18.416 12.0007C18.416 12.2457 18.3927 12.5023 18.3577 12.8523L18.1943 14.1707L19.2327 14.9873L20.4927 15.9673L19.676 17.379L18.1943 16.784L16.981 16.294L15.931 17.0873C15.4293 17.4607 14.951 17.7407 14.4727 17.939L13.236 18.4407L13.0493 19.759L12.816 21.334H11.1827L10.961 19.759L10.7743 18.4407L9.53766 17.939C9.03599 17.729 8.56932 17.4607 8.10266 17.1107L7.04099 16.294L5.80432 16.7957L4.32266 17.3907L3.50599 15.979L4.76599 14.999L5.80432 14.1823L5.64099 12.864C5.60599 12.5023 5.58266 12.234 5.58266 12.0007C5.58266 11.7673 5.60599 11.499 5.64099 11.149L5.80432 9.83065L4.76599 9.01398L3.50599 8.03399L4.32266 6.62232L5.80432 7.21732L7.01766 7.70732L8.06766 6.91398C8.56932 6.54065 9.04766 6.26065 9.52599 6.06232L10.7627 5.56065L10.9493 4.24232L11.1827 2.66732H12.8043L13.026 4.24232L13.2127 5.56065L14.4493 6.06232C14.951 6.27232 15.4177 6.54065 15.8843 6.89065L16.946 7.70732L18.1827 7.20565L19.6643 6.61065L20.481 8.02232L19.2327 9.01398L18.1943 9.83065L18.3577 11.149ZM11.9993 7.33398C9.42099 7.33398 7.33266 9.42232 7.33266 12.0007C7.33266 14.579 9.42099 16.6673 11.9993 16.6673C14.5777 16.6673 16.666 14.579 16.666 12.0007C16.666 9.42232 14.5777 7.33398 11.9993 7.33398ZM11.9993 14.334C10.716 14.334 9.66599 13.284 9.66599 12.0007C9.66599 10.7173 10.716 9.66732 11.9993 9.66732C13.2827 9.66732 14.3327 10.7173 14.3327 12.0007C14.3327 13.284 13.2827 14.334 11.9993 14.334Z" fill="white"/>
</svg>
