<svg width="85" height="41" viewBox="0 0 85 41" fill="none" xmlns="http://www.w3.org/2000/svg">
<path d="M0.120367 20.0986C-0.0297405 20.1736 -0.0447513 20.3238 0.105356 20.4138L13.1047 29L16.8273 11.4824L0.120367 20.0986Z" fill="white"/>
<path d="M77.0951 11.4688H73.8077C73.6426 11.4688 73.3724 11.5288 73.2223 11.6189L56.7405 20.0999C56.5904 20.175 56.5904 20.3251 56.7255 20.4152L69.5147 28.8362C69.6648 28.9263 69.9199 29.0013 70.0851 29.0013H73.3724C73.5375 29.0013 73.5525 28.9263 73.4174 28.8362L60.3731 20.25L77.1401 11.6189C77.2902 11.5288 77.2752 11.4688 77.0951 11.4688Z" fill="white"/>
<path d="M70.0558 11.4688H47.1494L43.4268 29.0013H66.3332C66.4983 29.0013 66.5283 28.9263 66.3782 28.8362L53.3489 20.25L70.0859 11.6189C70.236 11.5288 70.2209 11.4688 70.0558 11.4688Z" fill="white"/>
<path d="M84.1361 11.4688H80.8487C80.6836 11.4688 80.4134 11.5288 80.2633 11.6189L63.7815 20.1149C63.6314 20.19 63.6314 20.3401 63.7665 20.4302L76.5557 28.8512C76.6908 28.9413 76.961 29.0163 77.1261 29.0163H80.4134C80.5786 29.0163 80.6086 28.9413 80.4585 28.8512L67.4141 20.265L84.1661 11.6339C84.3162 11.5288 84.3012 11.4688 84.1361 11.4688Z" fill="white"/>
<path d="M69.0348 0H15.1162C12.114 0 9.99751 1.89135 9.50215 4.23303C9.23196 5.52396 9.7123 6.66477 10.703 7.44533L30.0819 20.2345H30.0969L69.0798 0.135097C69.2299 0.060043 69.2149 0 69.0348 0Z" fill="white"/>
<path d="M60.494 40.3037L30.1122 20.2344H30.0972L5.26941 33.0235C3.94847 33.8041 2.97277 34.9449 2.70258 36.2358C2.19221 38.5775 3.49815 40.4689 6.51531 40.4689H60.4339C60.614 40.4689 60.6291 40.3938 60.494 40.3037Z" fill="white"/>
</svg>