<svg width="26" height="24" viewBox="0 0 26 24" fill="none" xmlns="http://www.w3.org/2000/svg">
<path d="M13.0005 5.75V0.75H0.500488V23.25H25.5005V5.75H13.0005ZM5.50049 20.75H3.00049V18.25H5.50049V20.75ZM5.50049 15.75H3.00049V13.25H5.50049V15.75ZM5.50049 10.75H3.00049V8.25H5.50049V10.75ZM5.50049 5.75H3.00049V3.25H5.50049V5.75ZM10.5005 20.75H8.00049V18.25H10.5005V20.75ZM10.5005 15.75H8.00049V13.25H10.5005V15.75ZM10.5005 10.75H8.00049V8.25H10.5005V10.75ZM10.5005 5.75H8.00049V3.25H10.5005V5.75ZM23.0005 20.75H13.0005V18.25H15.5005V15.75H13.0005V13.25H15.5005V10.75H13.0005V8.25H23.0005V20.75ZM20.5005 10.75H18.0005V13.25H20.5005V10.75ZM20.5005 15.75H18.0005V18.25H20.5005V15.75Z" fill="#DD695D"/>
</svg>
